<svg xmlns="http://www.w3.org/2000/svg"
     viewBox="0 0 80 80" fill="none"
     width="20"
     height="20"
>
    <rect x="5.13477" y="43.3965" width="61.7321" height="31.8949" rx="2" transform="rotate(-16.1415 5.13477 43.3965)"
          fill="#4C9F73"/>
    <rect x="7.68359" y="44.7998" width="57.6166" height="27.7794" rx="2" transform="rotate(-16.1415 7.68359 44.7998)"
          fill="#70BA96"/>
    <ellipse cx="39.3597" cy="50.629" rx="9.25981" ry="9.25981" transform="rotate(-16.1415 39.3597 50.629)"
             fill="#4C9F73"/>
    <path d="M14.6018 42.7975C14.8647 43.7061 14.9461 44.6575 14.8414 45.5974C14.7366 46.5374 14.4478 47.4475 13.9913 48.2759C13.5348 49.1042 12.9196 49.8345 12.1809 50.4251C11.4422 51.0157 10.5944 51.455 9.68585 51.718L7.68359 44.7998L14.6018 42.7975Z"
          fill="#4C9F73"/>
    <path d="M63.8338 57.4691C63.5709 56.5605 63.4894 55.6091 63.5942 54.6692C63.6989 53.7292 63.9878 52.8191 64.4443 51.9907C64.9008 51.1624 65.5159 50.4321 66.2546 49.8415C66.9934 49.2509 67.8412 48.8116 68.7497 48.5486L70.752 55.4668L63.8338 57.4691Z"
          fill="#4C9F73"/>
    <path d="M13.404 64.5672C14.3125 64.3043 15.2639 64.2228 16.2039 64.3276C17.1438 64.4323 18.054 64.7212 18.8823 65.1777C19.7107 65.6342 20.441 66.2493 21.0316 66.988C21.6222 67.7268 22.0615 68.5746 22.3244 69.4831L15.4062 71.4854L13.404 64.5672Z"
          fill="#4C9F73"/>
    <path d="M65.0316 35.7014C64.123 35.9643 63.1717 36.0457 62.2317 35.941C61.2917 35.8362 60.3816 35.5474 59.5532 35.0909C58.7249 34.6344 57.9946 34.0192 57.404 33.2805C56.8134 32.5418 56.3741 31.694 56.1111 30.7855L63.0293 28.7832L65.0316 35.7014Z"
          fill="#4C9F73"/>
    <path d="M40.979 56.8762L41.8186 56.6332L41.4772 55.4533C43.7507 54.662 44.7369 53.0821 44.2183 51.2631C43.7061 49.5207 42.103 48.9963 40.1884 49.1032L39.6461 49.1268L38.8961 46.5354C39.76 46.4031 40.408 46.7176 40.6899 47.4205L42.7746 46.8171C42.2387 45.0738 40.5175 44.2226 38.3661 44.704L38.0225 43.5169L37.1828 43.7599L37.5264 44.9471C35.5167 45.7013 34.4158 47.3457 34.9364 49.1171C35.3805 50.6516 36.7219 51.2205 38.6138 51.1436L39.3114 51.1143L40.1054 53.8578C39.1236 54.0164 38.3192 53.6765 37.9859 52.7688L35.8722 53.3806C36.5439 55.4847 38.3217 56.2332 40.6375 55.6964L40.979 56.8762ZM37.1239 48.327C36.9594 47.7314 37.2762 47.1454 38.0585 46.7857L38.7457 49.1599C37.959 49.1523 37.3032 48.9734 37.1239 48.327ZM40.9429 53.6075L40.2118 51.0812C41.2137 51.0737 41.8334 51.263 42.0177 51.9C42.2147 52.5805 41.7998 53.234 40.9429 53.6075Z"
          fill="white"/>
    <rect x="18.0332" y="6.66699" width="61.7321" height="31.8949" rx="2" transform="rotate(22.115 18.0332 6.66699)"
          fill="#4C9F73"/>
    <rect x="19.1641" y="9.34766" width="57.6166" height="27.7794" rx="2" transform="rotate(22.115 19.1641 9.34766)"
          fill="#70BA96"/>
    <ellipse cx="40.4305" cy="33.5372" rx="9.25981" ry="9.25981" transform="rotate(22.115 40.4305 33.5372)"
             fill="#4C9F73"/>
    <path d="M25.8363 12.059C25.4802 12.9352 24.9551 13.7327 24.2908 14.406C23.6265 15.0792 22.8362 15.615 21.9648 15.9828C21.0935 16.3506 20.1582 16.5432 19.2125 16.5496C18.2667 16.5559 17.3289 16.3759 16.4527 16.0199L19.1641 9.34766L25.8363 12.059Z"
          fill="#4C9F73"/>
    <path d="M55.4118 54.0641C55.7678 53.1878 56.293 52.3903 56.9572 51.7171C57.6215 51.0438 58.4119 50.508 59.2832 50.1402C60.1546 49.7724 61.0898 49.5798 62.0356 49.5735C62.9814 49.5671 63.9191 49.7471 64.7953 50.1032L62.084 56.7754L55.4118 54.0641Z"
          fill="#4C9F73"/>
    <path d="M11.4184 28.4118C12.2946 28.7678 13.0921 29.293 13.7653 29.9572C14.4386 30.6215 14.9744 31.4119 15.3422 32.2832C15.71 33.1546 15.9026 34.0898 15.9089 35.0356C15.9153 35.9814 15.7353 36.9191 15.3793 37.7953L8.70703 35.084L11.4184 28.4118Z"
          fill="#4C9F73"/>
    <path d="M69.8316 37.7113C68.9554 37.3552 68.1579 36.8301 67.4847 36.1658C66.8114 35.5015 66.2756 34.7112 65.9078 33.8398C65.54 32.9685 65.3474 32.0332 65.3411 31.0875C65.3347 30.1417 65.5147 29.2039 65.8707 28.3277L72.543 31.0391L69.8316 37.7113Z"
          fill="#4C9F73"/>
    <path d="M37.8338 39.4473L38.6436 39.7764L39.106 38.6385C41.3813 39.4248 43.1339 38.7948 43.853 37.0454C44.5297 35.3601 43.5956 33.9556 42.026 32.8541L41.5855 32.5368L42.6011 30.0375C43.3614 30.4685 43.6755 31.1167 43.4616 31.8432L45.4722 32.6603C46.1309 30.9594 45.3063 29.2253 43.3189 28.2713L43.7841 27.1264L42.9743 26.7973L42.509 27.9422C40.464 27.2901 38.5813 27.8997 37.8932 29.613C37.2918 31.093 37.9929 32.3702 39.5261 33.4813L40.092 33.8902L39.0168 36.5361C38.1476 36.0528 37.7264 35.2878 38.0267 34.3687L35.9882 33.5403C35.2128 35.6085 36.1453 37.2971 38.2962 38.3094L37.8338 39.4473ZM40.1002 30.3471C40.3398 29.7775 40.9514 29.5136 41.7885 29.7154L40.858 32.0053C40.2449 31.5122 39.8407 30.9656 40.1002 30.3471ZM39.8295 36.8582L40.8195 34.4218C41.611 35.0362 41.9803 35.5686 41.7307 36.183C41.464 36.8392 40.7335 37.0955 39.8295 36.8582Z"
          fill="white"/>
</svg>