<svg width="60" height="60" viewBox="0 0 60 60" fill="none" xmlns="http://www.w3.org/2000/svg">
<path d="M4 17.2515C4 13.4769 6.91015 10.417 10.5 10.417H49.5C53.0899 10.417 56 13.4769 56 17.2515V49.1457C56 52.9202 53.0899 55.9801 49.5 55.9801H10.5C6.91015 55.9801 4 52.9202 4 49.1457V17.2515Z" fill="url(#paint0_linear_4138_136159)"/>
<path d="M49.5 10.417H10.5C6.91015 10.417 4 13.4769 4 17.2515V25.7813H56V17.2515C56 13.4769 53.0899 10.417 49.5 10.417Z" fill="#FC3232"/>
<ellipse cx="17.2542" cy="14.6554" rx="4.07843" ry="4.23843" fill="#FCFCFC"/>
<path d="M14.1953 6.70863C14.1953 4.66041 15.5648 3 17.2541 3C18.9435 3 20.313 4.66041 20.313 6.70863V14.1259C20.313 16.1741 18.9435 17.8345 17.2541 17.8345C15.5648 17.8345 14.1953 16.1741 14.1953 14.1259V6.70863Z" fill="#373737"/>
<ellipse cx="43.764" cy="14.6554" rx="4.07843" ry="4.23843" fill="#FCFCFC"/>
<path d="M40.7051 6.70863C40.7051 4.66041 42.0746 3 43.7639 3C45.4532 3 46.8227 4.66041 46.8227 6.70863V14.1259C46.8227 16.1741 45.4532 17.8345 43.7639 17.8345C42.0746 17.8345 40.7051 16.1741 40.7051 14.1259V6.70863Z" fill="#373737"/>
<path d="M25.8721 32.8826H22.9626L19.2949 35.318V38.1593L22.6962 35.9375H22.7782V48.3494H25.8721V32.8826Z" fill="#282A2E"/>
<path d="M34.7237 32.669C31.3736 32.6583 29.1095 34.9228 29.1095 38.0311C29.13 40.9151 31.097 43.0087 33.7606 43.0087C35.4101 43.0087 36.8751 42.1969 37.5717 40.8297H37.6947C37.6844 43.9166 36.619 45.8072 34.6007 45.8072C33.4123 45.8072 32.562 45.1343 32.3059 43.9914H29.2734C29.5705 46.6084 31.6195 48.5631 34.6007 48.5631C38.3298 48.5631 40.7169 45.4654 40.7067 40.2101C40.7067 34.5917 37.7971 32.6797 34.7237 32.669ZM32.1215 37.9456C32.101 36.4075 33.2279 35.2005 34.7442 35.1898C36.2604 35.2005 37.3668 36.4502 37.3873 37.9243C37.3873 39.409 36.2297 40.6588 34.7237 40.6588C33.1972 40.6588 32.1215 39.4731 32.1215 37.9456Z" fill="#282A2E"/>
<defs>
<linearGradient id="paint0_linear_4138_136159" x1="30" y1="25.7813" x2="30" y2="56" gradientUnits="userSpaceOnUse">
<stop stop-color="#E9E9E9"/>
<stop offset="1" stop-color="#F8F8F8"/>
</linearGradient>
</defs>
</svg>
