<svg width="61" height="60" viewBox="0 0 61 60" fill="none" xmlns="http://www.w3.org/2000/svg">
<path d="M10.3086 10.8203C10.3086 11.2734 9.94133 11.6406 9.48828 11.6406C9.03524 11.6406 8.66797 11.2734 8.66797 10.8203C8.66797 10.3673 9.03524 10 9.48828 10C9.94133 10 10.3086 10.3673 10.3086 10.8203Z" fill="white"/>
<path d="M13.5898 10.8203C13.5898 11.2734 13.2226 11.6406 12.7695 11.6406C12.3165 11.6406 11.9492 11.2734 11.9492 10.8203C11.9492 10.3673 12.3165 10 12.7695 10C13.2226 10 13.5898 10.3673 13.5898 10.8203Z" fill="white"/>
<path d="M16.8711 10.8203C16.8711 11.2734 16.5038 11.6406 16.0508 11.6406C15.5977 11.6406 15.2305 11.2734 15.2305 10.8203C15.2305 10.3673 15.5977 10 16.0508 10C16.5038 10 16.8711 10.3673 16.8711 10.8203Z" fill="white"/>
<path d="M8.38281 25.5527H52.9542V48.3337C52.9542 52.1629 49.8501 55.267 46.0209 55.267H15.3161C11.487 55.267 8.38281 52.1629 8.38281 48.3337V25.5527Z" fill="url(#paint0_linear_4138_136197)"/>
<path d="M40.1786 5.49921L36.2383 6.30519V14.4091H51.0954C51.0954 8.65391 45.817 4.3459 40.1786 5.49921Z" fill="#FFA92A"/>
<path d="M21.1554 5.49921L25.0957 6.30519V14.4091H10.2386C10.2386 8.65391 15.517 4.3459 21.1554 5.49921Z" fill="#FFA92A"/>
<path fill-rule="evenodd" clip-rule="evenodd" d="M28.5633 5C25.6914 5 23.3633 7.32812 23.3633 10.2V12.5524C23.3633 15.4243 25.6914 17.7524 28.5633 17.7524H32.7728C35.6447 17.7524 37.9728 15.4243 37.9728 12.5524V10.2C37.9728 7.32812 35.6447 5 32.7728 5H28.5633Z" fill="#FFB64A"/>
<path d="M4.66797 17.8758C4.66797 15.9613 6.22005 14.4092 8.13464 14.4092H53.2013C55.1159 14.4092 56.668 15.9613 56.668 17.8758V22.0854C56.668 24 55.1159 25.552 53.2013 25.552H8.13464C6.22005 25.552 4.66797 24 4.66797 22.0854V17.8758Z" fill="#F2F2F2"/>
<path d="M23.7344 14.3604H37.601V25.5789H23.7344V14.3604Z" fill="#FFB64A"/>
<path d="M23.7344 25.5586H37.601V55.3141H23.7344V25.5586Z" fill="url(#paint1_linear_4138_136197)"/>
<defs>
<linearGradient id="paint0_linear_4138_136197" x1="30.6685" y1="25.5527" x2="30.6685" y2="55.267" gradientUnits="userSpaceOnUse">
<stop stop-color="#E9E9E9"/>
<stop offset="1" stop-color="#F8F8F8"/>
</linearGradient>
<linearGradient id="paint1_linear_4138_136197" x1="30.6677" y1="25.5586" x2="30.6677" y2="55.3141" gradientUnits="userSpaceOnUse">
<stop stop-color="#FFA928"/>
<stop offset="1" stop-color="#FFC979"/>
</linearGradient>
</defs>
</svg>
